<?xml version="1.0" encoding="UTF-8" standalone="no"?>
<!DOCTYPE svg PUBLIC "-//W3C//DTD SVG 1.1//EN" "http://www.w3.org/Graphics/SVG/1.1/DTD/svg11.dtd">
<!-- Created with Vectornator (http://vectornator.io/) -->
<svg height="100%" stroke-miterlimit="10" style="fill-rule:nonzero;clip-rule:evenodd;stroke-linecap:round;stroke-linejoin:round;" version="1.1" viewBox="0 0 800 800" width="100%" xml:space="preserve" xmlns="http://www.w3.org/2000/svg" xmlns:vectornator="http://vectornator.io" xmlns:xlink="http://www.w3.org/1999/xlink">
<defs/>
<g id="Layer-1" vectornator:layerName="Layer 1">
<path d="M233.449 13.3329C203.588 23.9377 159.634 55.0543 135.355 83.2406C121.541 99.1477 109.54 117.148 100.75 135.148C91.5403 153.985 89.4473 167.939 85.5403 239.521C84.703 254.87 83.4472 271.056 82.7495 275.661C81.0751 285.847 84.9821 305.103 91.1217 317.382C96.5636 328.127 152.936 412.267 164.378 426.5C169.402 432.639 175.96 441.151 179.309 445.337C182.518 449.523 192.425 461.942 201.355 472.826C253.681 537.152 261.775 550.129 268.333 580.687C271.961 597.85 276.844 607.478 292.472 627.292C299.589 636.223 307.263 645.99 309.496 648.92C311.868 651.851 319.124 660.502 325.682 668.037C332.24 675.711 339.217 684.363 341.31 687.432C343.264 690.502 350.24 707.386 356.659 725.107C381.078 791.526 382.055 793.62 388.473 787.759C396.287 780.643 402.706 762.363 407.869 732.084C412.474 705.293 416.939 689.525 424.613 673.06C433.544 654.362 454.195 619.199 467.87 599.525C471.079 594.92 483.358 577.199 495.079 560.315C524.382 517.756 529.963 510.78 556.196 483.989C576.847 462.779 580.196 458.593 590.103 442.128C607.824 412.267 616.057 400.825 633.22 381.848C635.871 378.778 644.243 368.732 651.778 359.522C659.174 350.313 671.034 337.057 678.011 330.22L690.848 317.661L691.686 308.592C692.941 295.894 694.476 289.894 704.383 254.172C713.035 223.754 717.639 204.079 717.639 198.637C717.639 197.102 716.104 192.497 714.29 188.451C708.988 176.311 707.872 168.776 706.476 134.45C705.639 113.241 704.523 100.962 703.407 98.7291C702.43 96.9151 690.29 85.8918 676.476 74.3103C662.662 62.5892 645.081 47.6589 637.406 41.1007C616.197 22.8214 608.522 20.4493 571.126 20.7284C543.777 21.0074 515.591 24.6354 501.916 29.6587C497.451 31.3331 487.126 36.6355 479.032 41.3797C440.799 64.1241 433.125 68.4498 426.009 72.0777C414.846 77.6591 396.567 89.9383 381.357 101.938C354.147 123.427 348.147 128.032 336.845 136.264C330.426 140.869 312.008 155.66 295.961 169.055C279.775 182.451 262.193 197.102 256.612 201.567C236.1 218.312 232.472 222.219 230.1 230.451C224.797 248.172 222.425 284.731 224.937 311.661C226.89 332.173 229.402 342.08 234.565 348.638C238.611 353.801 263.309 375.011 277.682 385.616C287.728 393.151 317.31 422.314 327.775 434.872C338.24 447.43 350.24 463.616 362.38 481.617C378.427 505.198 378.985 505.896 383.171 504.78C388.473 503.524 399.915 492.361 410.799 478.128C424.055 460.547 451.265 431.244 465.358 419.383C471.777 414.081 482.939 404.593 490.474 398.174C508.614 382.546 546.707 342.08 586.894 295.615C593.731 287.801 602.801 277.335 607.127 272.452C611.452 267.568 617.034 260.731 619.266 257.242C623.034 251.382 623.452 249.847 623.313 239.521C623.034 227.102 619.685 212.451 611.592 189.288C604.057 167.66 594.847 143.381 593.592 142.264C591.359 139.892 528.986 132.078 498.288 130.404C479.87 129.427 466.893 131.381 460.335 135.985C458.102 137.52 450.288 143.799 442.893 149.799C427.962 162.079 418.753 169.614 371.45 208.405C353.31 223.195 335.031 237.707 330.845 240.777C320.798 247.893 317.17 253.614 317.17 262.405C317.17 277.754 331.961 300.219 360.706 328.406C384.566 351.848 403.543 363.569 417.776 363.708C426.427 363.708 430.892 361.755 465.776 342.359C478.614 335.243 485.032 330.499 493.126 322.545C509.591 306.219 537.638 273.428 537.638 270.498C537.638 269.103 533.591 261.149 528.707 252.777C516.428 232.265 513.358 225.847 509.591 213.707C505.963 201.846 502.056 196.963 495.777 196.963C490.195 196.963 454.055 215.102 447.079 221.381C441.776 226.265 432.148 243.847 423.357 264.917L419.171 275.103L423.776 275.103C429.497 275.103 430.753 273.568 434.381 263.103C435.916 258.638 438.427 253.754 439.823 252.079C441.218 250.545 443.869 245.661 445.544 241.196L448.893 233.242L470.939 221.242C483.218 214.544 493.265 209.381 493.544 209.66C497.591 214.405 502.474 225.847 508.335 244.544C512.242 257.103 515.591 268.405 515.73 269.521C515.73 270.638 508.754 280.684 499.963 291.847L484.056 312.08L459.776 328.545L435.637 344.871L419.73 344.871L403.962 344.871L382.473 325.475L361.124 306.08L348.147 282.777C341.031 269.94 335.31 259.056 335.589 258.359C336.147 257.103 400.055 200.311 412.055 190.544C453.776 156.637 461.451 151.055 472.614 146.73L483.916 142.404L530.661 146.032C556.335 147.985 577.405 149.799 577.545 149.939C577.685 150.078 580.336 155.241 583.266 161.381C586.336 167.52 592.336 184.544 596.661 199.056L604.336 225.568L601.964 243.289C599.034 263.8 603.359 257.521 563.452 300.359C539.173 326.452 498.149 367.476 446.939 416.732C433.265 429.849 419.45 441.291 405.218 451.477L383.869 466.826L375.915 458.453C371.59 453.849 361.543 442.965 353.45 434.174C345.357 425.523 323.17 403.337 303.914 384.918L269.03 351.569L257.449 323.522L245.867 295.336L250.333 258.359L254.798 221.242L277.123 202.544C289.403 192.218 304.333 179.66 310.194 174.637C344.519 145.474 355.682 136.962 398.101 106.683C423.776 88.4034 449.869 69.8451 456.009 65.5195C467.73 57.2869 466.056 57.9845 522.01 40.8216L539.731 35.3797L569.033 38.4495L598.336 41.5193L642.987 71.2405C667.546 87.7058 688.058 101.38 688.476 101.938C689.034 102.357 692.383 127.613 695.872 157.892L702.43 213.009L686.802 254.87C678.29 277.894 670.616 297.987 669.918 299.382C669.081 300.917 657.36 317.243 643.825 335.662C630.29 354.22 608.662 385.337 595.545 404.872C570.429 442.407 573.498 438.918 536.94 473.244C530.103 479.663 518.94 494.035 498.986 522.082C475.684 555.013 467.032 568.548 449.172 600.641C429.916 635.246 426.009 643.339 412.892 676.828C404.799 697.34 395.032 722.596 391.264 732.782C384.287 751.759 384.008 752.038 382.055 740.456C380.52 731.107 344.799 663.432 326.519 635.106C315.356 617.943 305.868 601.06 298.193 584.873C288.286 564.082 283.682 556.408 266.658 532.547C255.774 517.198 235.402 488.314 221.588 468.361C207.774 448.407 179.169 409.476 158.099 381.988C119.866 331.755 119.866 331.755 109.54 309.429L99.2148 286.963L100.75 251.382C101.587 231.847 103.261 202.125 104.378 185.521L106.331 155.241L116.378 136.823C124.75 121.194 129.355 114.636 146.797 94.4035C165.634 72.4963 168.983 69.287 189.774 53.5194C208.472 39.2867 215.03 35.3797 228.565 29.3796L244.751 22.2633L298.612 47.5193C328.194 61.4729 353.31 72.7754 354.287 72.7754C355.403 72.7754 356.241 71.7986 356.241 70.6823C356.241 68.3102 348.427 63.1474 334.612 56.1706C329.31 53.5194 322.333 49.8914 319.263 47.9379C311.031 42.7751 245.867 9.98407 244.053 10.1236C243.216 10.1236 238.472 11.6585 233.449 13.3329Z" fill="#000000" fill-rule="nonzero" opacity="1" stroke="none"/>
</g>
</svg>
